
<svg width="108" height="32" viewBox="0 0 108 32" fill="none" xmlns="http://www.w3.org/2000/svg">
  <path d="M24.6 13.5C24.6 19.3 19.9 24 14.1 24C8.3 24 3.6 19.3 3.6 13.5C3.6 7.7 8.3 3 14.1 3C19.9 3 24.6 7.7 24.6 13.5Z" fill="#B92025"/>
  <path d="M14.1 20.4C17.9154 20.4 21 17.3154 21 13.5C21 9.68456 17.9154 6.6 14.1 6.6C10.2846 6.6 7.2 9.68456 7.2 13.5C7.2 17.3154 10.2846 20.4 14.1 20.4Z" fill="white"/>
  <path d="M38.1 13.6C38.1 15.7 36.4 17.4 34.3 17.4C32.2 17.4 30.5 15.7 30.5 13.6C30.5 11.5 32.2 9.8 34.3 9.8C36.4 9.8 38.1 11.5 38.1 13.6Z" fill="#B92025"/>
  <path d="M44 13.1L41.4 7.8H43.8L45.4 11.1L47 7.8H49.4L46.8 13.1L49.5 18.5H47.1L45.4 15L43.7 18.5H41.3L44 13.1Z" fill="#333333"/>
  <path d="M57.3 7.8V9.6H53.3V12H56.9V13.8H53.3V16.7H57.3V18.5H51.2V7.8H57.3Z" fill="#333333"/>
  <path d="M67.1 7.8L63.5 18.5H61.2L57.6 7.8H60L62.3 15.3L64.7 7.8H67.1Z" fill="#333333"/>
  <path d="M74.4 7.8V9.6H70.4V12H74V13.8H70.4V16.7H74.4V18.5H68.3V7.8H74.4Z" fill="#333333"/>
  <path d="M79.5 18.5H77.4V7.8H80.1C81 7.8 81.8 7.8 82.5 8.3C83 8.7 83.4 9.3 83.4 9.9C83.4 10.6 83.1 11.3 82.1 11.7V11.7C83.2 12 83.6 12.7 83.6 13.6C83.6 14.3 83.3 15 82.7 15.5C82 16 81 16.1 80.1 16.1H79.5V18.5ZM79.5 9.6V11.2H80.2C80.5 11.2 81.2 11.2 81.2 10.4C81.2 9.6 80.5 9.6 80.2 9.6H79.5ZM79.5 13V14.3H80.3C80.7 14.3 81.4 14.3 81.4 13.7C81.4 13 80.7 13 80.3 13H79.5Z" fill="#333333"/>
  <path d="M88.8 13.1C88.8 10.3 91 7.6 94.1 7.6C97.2 7.6 99.4 10.3 99.4 13.1C99.4 15.9 97.2 18.6 94.1 18.6C91 18.7 88.8 16 88.8 13.1ZM97.3 13.1C97.3 11.3 95.9 9.5 94.1 9.5C92.3 9.5 90.9 11.3 90.9 13.1C90.9 14.9 92.3 16.7 94.1 16.7C95.9 16.8 97.3 14.9 97.3 13.1Z" fill="#333333"/>
  <path d="M103.4 18.5H101.3V7.8H104.6C105.4 7.8 106.4 7.8 107.1 8.4C107.7 8.9 108 9.6 108 10.4C108 11.6 107.3 12.4 106.1 12.7L108.3 18.5H106L104 13H103.4V18.5ZM103.4 9.6V11.2H104.3C104.6 11.2 105.9 11.3 105.9 10.3C105.9 9.6 105.2 9.6 104.7 9.6H103.4Z" fill="#333333"/>
</svg>
